{
    "asset" : {
        "generator" : "Khronos glTF Blender I/O v1.5.17",
        "version" : "2.0"
    },
    "scene" : 0,
    "scenes" : [
        {
            "name" : "Scene",
            "nodes" : [
                0,
                2,
                3
            ]
        }
    ],
    "nodes" : [
        {
            "name" : "Light",
            "rotation" : [
                0.16907575726509094,
                0.7558803558349609,
                -0.27217137813568115,
                0.570947527885437
            ],
            "translation" : [
                4.076245307922363,
                5.903861999511719,
                -1.0054539442062378
            ]
        },
        {
            "camera" : 0,
            "name" : "Camera_Orientation",
            "rotation" : [
                -0.7071067690849304,
                0,
                0,
                0.7071067690849304
            ]
        },
        {
            "children" : [
                1
            ],
            "name" : "Camera",
            "rotation" : [
                0.483536034822464,
                0.33687159419059753,
                -0.20870360732078552,
                0.7804827094078064
            ],
            "translation" : [
                7.4220404624938965,
                4.948135852813721,
                6.864161968231201
            ]
        },
        {
            "mesh" : 0,
            "name" : "Grid"
        }
    ],
    "cameras" : [
        {
            "name" : "Camera",
            "perspective" : {
                "aspectRatio" : 1.7777777777777777,
                "yfov" : 0.39959652046304894,
                "zfar" : 100,
                "znear" : 0.10000000149011612
            },
            "type" : "perspective"
        }
    ],
    "materials" : [
        {
            "doubleSided" : true,
            "name" : "Material.001",
            "pbrMetallicRoughness" : {
                "baseColorTexture" : {
                    "index" : 0
                },
                "metallicFactor" : 0,
                "roughnessFactor" : 0.5
            }
        }
    ],
    "meshes" : [
        {
            "name" : "Grid",
            "primitives" : [
                {
                    "attributes" : {
                        "POSITION" : 0,
                        "NORMAL" : 1,
                        "TEXCOORD_0" : 2
                    },
                    "indices" : 3,
                    "material" : 0
                }
            ]
        }
    ],
    "textures" : [
        {
            "sampler" : 0,
            "source" : 0
        }
    ],
    "images" : [
        {
            "mimeType" : "image/png",
            "name" : "Untitled",
            "uri" : "hjjjh/Untitled.png"
        }
    ],
    "accessors" : [
        {
            "bufferView" : 0,
            "componentType" : 5126,
            "count" : 148,
            "max" : [
                1,
                0,
                1
            ],
            "min" : [
                -1,
                0,
                -1
            ],
            "type" : "VEC3"
        },
        {
            "bufferView" : 1,
            "componentType" : 5126,
            "count" : 148,
            "type" : "VEC3"
        },
        {
            "bufferView" : 2,
            "componentType" : 5126,
            "count" : 148,
            "type" : "VEC2"
        },
        {
            "bufferView" : 3,
            "componentType" : 5123,
            "count" : 486,
            "type" : "SCALAR"
        }
    ],
    "bufferViews" : [
        {
            "buffer" : 0,
            "byteLength" : 1776,
            "byteOffset" : 0
        },
        {
            "buffer" : 0,
            "byteLength" : 1776,
            "byteOffset" : 1776
        },
        {
            "buffer" : 0,
            "byteLength" : 1184,
            "byteOffset" : 3552
        },
        {
            "buffer" : 0,
            "byteLength" : 972,
            "byteOffset" : 4736
        }
    ],
    "samplers" : [
        {
            "magFilter" : 9729,
            "minFilter" : 9987
        }
    ],
    "buffers" : [
        {
            "byteLength" : 5708,
            "uri" : "369.bin"
        }
    ]
}
